<?xml version="1.0" encoding="UTF-8" standalone="no"?>
<!DOCTYPE svg PUBLIC "-//W3C//DTD SVG 1.1//EN"
 "http://www.w3.org/Graphics/SVG/1.1/DTD/svg11.dtd">
<!-- Generated by graphviz version 9.0.0 (20230911.1827)
 -->
<!-- Title: G Pages: 1 -->
<svg width="664pt" height="67pt"
 viewBox="0.00 0.00 663.95 66.95" xmlns="http://www.w3.org/2000/svg" xmlns:xlink="http://www.w3.org/1999/xlink">
<g id="graph0" class="graph" transform="scale(1 1) rotate(0) translate(21.6 45.35)">
<title>G</title>
<polygon fill="#111111" stroke="none" points="-21.6,21.6 -21.6,-45.35 642.35,-45.35 642.35,21.6 -21.6,21.6"/>
<!-- ../../packages/app/features/home/screen.tsx -->
<g id="node1" class="node">
<title>../../packages/app/features/home/screen.tsx</title>
<path fill="none" stroke="#c6c5fe" d="M270.58,-23.75C270.58,-23.75 7.92,-23.75 7.92,-23.75 3.96,-23.75 0,-19.79 0,-15.83 0,-15.83 0,-7.92 0,-7.92 0,-3.96 3.96,0 7.92,0 7.92,0 270.58,0 270.58,0 274.54,0 278.5,-3.96 278.5,-7.92 278.5,-7.92 278.5,-15.83 278.5,-15.83 278.5,-19.79 274.54,-23.75 270.58,-23.75"/>
<text text-anchor="middle" x="139.25" y="-6.45" font-family="Arial" font-size="14.00" fill="#c6c5fe">../../packages/app/features/home/screen.tsx</text>
</g>
<!-- ../../node_modules/@types/react/ts5.0/index.d.ts -->
<g id="node2" class="node">
<title>../../node_modules/@types/react/ts5.0/index.d.ts</title>
<path fill="none" stroke="#cfffac" d="M612.83,-23.75C612.83,-23.75 322.42,-23.75 322.42,-23.75 318.46,-23.75 314.5,-19.79 314.5,-15.83 314.5,-15.83 314.5,-7.92 314.5,-7.92 314.5,-3.96 318.46,0 322.42,0 322.42,0 612.83,0 612.83,0 616.79,0 620.75,-3.96 620.75,-7.92 620.75,-7.92 620.75,-15.83 620.75,-15.83 620.75,-19.79 616.79,-23.75 612.83,-23.75"/>
<text text-anchor="middle" x="467.62" y="-6.45" font-family="Arial" font-size="14.00" fill="#cfffac">../../node_modules/@types/react/ts5.0/index.d.ts</text>
</g>
<!-- ../../packages/app/features/home/screen.tsx&#45;&gt;../../node_modules/@types/react/ts5.0/index.d.ts -->
<g id="edge1" class="edge">
<title>../../packages/app/features/home/screen.tsx&#45;&gt;../../node_modules/@types/react/ts5.0/index.d.ts</title>
<path fill="none" stroke="#757575" d="M278.66,-11.88C286.63,-11.88 294.68,-11.88 302.74,-11.88"/>
<polygon fill="#757575" stroke="#757575" points="302.61,-15.38 312.61,-11.88 302.61,-8.38 302.61,-15.38"/>
</g>
</g>
</svg>
