<?xml version="1.0" encoding="UTF-8" standalone="no"?>
<!DOCTYPE svg PUBLIC "-//W3C//DTD SVG 1.1//EN"
 "http://www.w3.org/Graphics/SVG/1.1/DTD/svg11.dtd">
<!-- Generated by graphviz version 9.0.0 (20230911.1827)
 -->
<!-- Title: G Pages: 1 -->
<svg width="420pt" height="109pt"
 viewBox="0.00 0.00 420.20 108.95" xmlns="http://www.w3.org/2000/svg" xmlns:xlink="http://www.w3.org/1999/xlink">
<g id="graph0" class="graph" transform="scale(1 1) rotate(0) translate(21.6 87.35)">
<title>G</title>
<polygon fill="#111111" stroke="none" points="-21.6,21.6 -21.6,-87.35 398.6,-87.35 398.6,21.6 -21.6,21.6"/>
<!-- index.js -->
<g id="node1" class="node">
<title>index.js</title>
<path fill="none" stroke="#c6c5fe" d="M53.83,-44.75C53.83,-44.75 7.92,-44.75 7.92,-44.75 3.96,-44.75 0,-40.79 0,-36.83 0,-36.83 0,-28.92 0,-28.92 0,-24.96 3.96,-21 7.92,-21 7.92,-21 53.83,-21 53.83,-21 57.79,-21 61.75,-24.96 61.75,-28.92 61.75,-28.92 61.75,-36.83 61.75,-36.83 61.75,-40.79 57.79,-44.75 53.83,-44.75"/>
<text text-anchor="middle" x="30.88" y="-27.45" font-family="Arial" font-size="14.00" fill="#c6c5fe">index.js</text>
</g>
<!-- ../../node_modules/expo&#45;router/entry.js -->
<g id="node2" class="node">
<title>../../node_modules/expo&#45;router/entry.js</title>
<path fill="none" stroke="#cfffac" d="M352.96,-65.75C352.96,-65.75 121.79,-65.75 121.79,-65.75 117.83,-65.75 113.88,-61.79 113.88,-57.83 113.88,-57.83 113.88,-49.92 113.88,-49.92 113.88,-45.96 117.83,-42 121.79,-42 121.79,-42 352.96,-42 352.96,-42 356.92,-42 360.88,-45.96 360.88,-49.92 360.88,-49.92 360.88,-57.83 360.88,-57.83 360.88,-61.79 356.92,-65.75 352.96,-65.75"/>
<text text-anchor="middle" x="237.38" y="-48.45" font-family="Arial" font-size="14.00" fill="#cfffac">../../node_modules/expo&#45;router/entry.js</text>
</g>
<!-- index.js&#45;&gt;../../node_modules/expo&#45;router/entry.js -->
<g id="edge1" class="edge">
<title>index.js&#45;&gt;../../node_modules/expo&#45;router/entry.js</title>
<path fill="none" stroke="#757575" d="M62.05,-35.97C74.15,-37.22 88.98,-38.74 104.84,-40.37"/>
<polygon fill="#757575" stroke="#757575" points="104.16,-43.82 114.46,-41.36 104.87,-36.85 104.16,-43.82"/>
</g>
<!-- ../../node_modules/expo&#45;router/src/index.tsx -->
<g id="node3" class="node">
<title>../../node_modules/expo&#45;router/src/index.tsx</title>
<path fill="none" stroke="#cfffac" d="M369.08,-23.75C369.08,-23.75 105.67,-23.75 105.67,-23.75 101.71,-23.75 97.75,-19.79 97.75,-15.83 97.75,-15.83 97.75,-7.92 97.75,-7.92 97.75,-3.96 101.71,0 105.67,0 105.67,0 369.08,0 369.08,0 373.04,0 377,-3.96 377,-7.92 377,-7.92 377,-15.83 377,-15.83 377,-19.79 373.04,-23.75 369.08,-23.75"/>
<text text-anchor="middle" x="237.38" y="-6.45" font-family="Arial" font-size="14.00" fill="#cfffac">../../node_modules/expo&#45;router/src/index.tsx</text>
</g>
<!-- index.js&#45;&gt;../../node_modules/expo&#45;router/src/index.tsx -->
<g id="edge2" class="edge">
<title>index.js&#45;&gt;../../node_modules/expo&#45;router/src/index.tsx</title>
<path fill="none" stroke="#757575" d="M62.05,-29.78C74.15,-28.53 88.98,-27.01 104.84,-25.38"/>
<polygon fill="#757575" stroke="#757575" points="104.87,-28.9 114.46,-24.39 104.16,-21.93 104.87,-28.9"/>
</g>
</g>
</svg>
