<?xml version="1.0" encoding="UTF-8" standalone="no"?>
<!DOCTYPE svg PUBLIC "-//W3C//DTD SVG 1.1//EN"
 "http://www.w3.org/Graphics/SVG/1.1/DTD/svg11.dtd">
<!-- Generated by graphviz version 9.0.0 (20230911.1827)
 -->
<!-- Title: G Pages: 1 -->
<svg width="792pt" height="67pt"
 viewBox="0.00 0.00 791.70 66.95" xmlns="http://www.w3.org/2000/svg" xmlns:xlink="http://www.w3.org/1999/xlink">
<g id="graph0" class="graph" transform="scale(1 1) rotate(0) translate(21.6 45.35)">
<title>G</title>
<polygon fill="#111111" stroke="none" points="-21.6,21.6 -21.6,-45.35 770.1,-45.35 770.1,21.6 -21.6,21.6"/>
<!-- ../../../packages/app/features/home/screen.tsx -->
<g id="node1" class="node">
<title>../../../packages/app/features/home/screen.tsx</title>
<path fill="none" stroke="#c6c5fe" d="M387.08,-23.75C387.08,-23.75 113.17,-23.75 113.17,-23.75 109.21,-23.75 105.25,-19.79 105.25,-15.83 105.25,-15.83 105.25,-7.92 105.25,-7.92 105.25,-3.96 109.21,0 113.17,0 113.17,0 387.08,0 387.08,0 391.04,0 395,-3.96 395,-7.92 395,-7.92 395,-15.83 395,-15.83 395,-19.79 391.04,-23.75 387.08,-23.75"/>
<text text-anchor="middle" x="250.12" y="-6.45" font-family="Arial" font-size="14.00" fill="#c6c5fe">../../../packages/app/features/home/screen.tsx</text>
</g>
<!-- ../../../node_modules/@types/react/ts5.0/index.d.ts -->
<g id="node2" class="node">
<title>../../../node_modules/@types/react/ts5.0/index.d.ts</title>
<path fill="none" stroke="#cfffac" d="M740.58,-23.75C740.58,-23.75 438.92,-23.75 438.92,-23.75 434.96,-23.75 431,-19.79 431,-15.83 431,-15.83 431,-7.92 431,-7.92 431,-3.96 434.96,0 438.92,0 438.92,0 740.58,0 740.58,0 744.54,0 748.5,-3.96 748.5,-7.92 748.5,-7.92 748.5,-15.83 748.5,-15.83 748.5,-19.79 744.54,-23.75 740.58,-23.75"/>
<text text-anchor="middle" x="589.75" y="-6.45" font-family="Arial" font-size="14.00" fill="#cfffac">../../../node_modules/@types/react/ts5.0/index.d.ts</text>
</g>
<!-- ../../../packages/app/features/home/screen.tsx&#45;&gt;../../../node_modules/@types/react/ts5.0/index.d.ts -->
<g id="edge1" class="edge">
<title>../../../packages/app/features/home/screen.tsx&#45;&gt;../../../node_modules/@types/react/ts5.0/index.d.ts</title>
<path fill="none" stroke="#757575" d="M395.29,-11.88C403.27,-11.88 411.32,-11.88 419.38,-11.88"/>
<polygon fill="#757575" stroke="#757575" points="419.25,-15.38 429.25,-11.88 419.25,-8.38 419.25,-15.38"/>
</g>
<!-- index.tsx -->
<g id="node3" class="node">
<title>index.tsx</title>
<path fill="none" stroke="#c6c5fe" d="M61.33,-23.75C61.33,-23.75 7.92,-23.75 7.92,-23.75 3.96,-23.75 0,-19.79 0,-15.83 0,-15.83 0,-7.92 0,-7.92 0,-3.96 3.96,0 7.92,0 7.92,0 61.33,0 61.33,0 65.29,0 69.25,-3.96 69.25,-7.92 69.25,-7.92 69.25,-15.83 69.25,-15.83 69.25,-19.79 65.29,-23.75 61.33,-23.75"/>
<text text-anchor="middle" x="34.62" y="-6.45" font-family="Arial" font-size="14.00" fill="#c6c5fe">index.tsx</text>
</g>
<!-- index.tsx&#45;&gt;../../../packages/app/features/home/screen.tsx -->
<g id="edge2" class="edge">
<title>index.tsx&#45;&gt;../../../packages/app/features/home/screen.tsx</title>
<path fill="none" stroke="#757575" d="M69.45,-11.88C76.73,-11.88 84.87,-11.88 93.56,-11.88"/>
<polygon fill="#757575" stroke="#757575" points="93.33,-15.38 103.33,-11.88 93.33,-8.38 93.33,-15.38"/>
</g>
</g>
</svg>
